<svg width="16" height="15" viewBox="0 0 16 15" fill="none" xmlns="http://www.w3.org/2000/svg">
<path fill-rule="evenodd" clip-rule="evenodd" d="M3.08902e-06 5.02329C3.08902e-06 3.69103 0.529241 2.41334 1.47129 1.47129C2.41334 0.529238 3.69103 0 5.02329 0H8.00006C9.33232 1.98522e-08 10.61 0.529238 11.5521 1.47129C12.4941 2.41334 13.0233 3.69103 13.0233 5.02329C13.0233 6.35555 12.4941 7.63324 11.5521 8.57529C10.61 9.51734 9.33232 10.0466 8.00006 10.0466H6.51167C6.36365 10.0466 6.22168 9.98777 6.11701 9.8831C6.01234 9.77843 5.95353 9.63646 5.95353 9.48844C5.95353 9.34041 6.01234 9.19844 6.11701 9.09377C6.22168 8.9891 6.36365 8.93029 6.51167 8.93029H8.00006C8.51313 8.93029 9.02118 8.82923 9.4952 8.63289C9.96922 8.43654 10.3999 8.14876 10.7627 7.78596C11.1255 7.42316 11.4133 6.99245 11.6097 6.51843C11.806 6.04442 11.9071 5.53636 11.9071 5.02329C11.9071 4.51021 11.806 4.00216 11.6097 3.52814C11.4133 3.05412 11.1255 2.62342 10.7627 2.26062C10.3999 1.89782 9.96922 1.61003 9.4952 1.41369C9.02118 1.21734 8.51313 1.11629 8.00006 1.11629H5.02329C4.26908 1.1163 3.531 1.33462 2.89813 1.74488C2.26527 2.15514 1.76467 2.7398 1.45677 3.4283C1.14888 4.1168 1.04684 4.8797 1.16298 5.62492C1.27912 6.37013 1.60847 7.0658 2.11127 7.62796C2.20895 7.73844 2.25893 7.88309 2.25029 8.0303C2.24166 8.17752 2.17512 8.31533 2.06521 8.41365C1.9553 8.51196 1.81094 8.56278 1.66368 8.555C1.51642 8.54723 1.37822 8.48149 1.27927 8.37215C0.454264 7.45194 -0.0013688 6.25918 3.08902e-06 5.02329ZM8.00006 5.58143C7.48698 5.58143 6.97893 5.68249 6.50491 5.87884C6.03089 6.07518 5.60019 6.36297 5.23739 6.72577C4.87459 7.08857 4.5868 7.51927 4.39046 7.99329C4.19411 8.46731 4.09305 8.97536 4.09305 9.48844C4.09305 10.0015 4.19411 10.5096 4.39046 10.9836C4.5868 11.4576 4.87459 11.8883 5.23739 12.2511C5.60019 12.6139 6.03089 12.9017 6.50491 13.098C6.97893 13.2944 7.48698 13.3954 8.00006 13.3954H10.9768C11.731 13.3954 12.4691 13.1771 13.102 12.7668C13.7348 12.3566 14.2354 11.7719 14.5433 11.0834C14.8512 10.3949 14.9533 9.63202 14.8371 8.88681C14.721 8.14159 14.3916 7.44592 13.8888 6.88377C13.8395 6.82922 13.8014 6.76545 13.7767 6.69613C13.7521 6.6268 13.7414 6.55329 13.7453 6.47983C13.7492 6.40636 13.7676 6.33438 13.7994 6.26804C13.8311 6.20169 13.8757 6.14229 13.9306 6.09324C13.9854 6.0442 14.0494 6.00647 14.1189 5.98225C14.1883 5.95802 14.2619 5.94776 14.3353 5.95207C14.4088 5.95637 14.4807 5.97516 14.5468 6.00734C14.613 6.03952 14.6721 6.08446 14.7208 6.13958C15.3673 6.86235 15.7908 7.75678 15.9401 8.71491C16.0894 9.67305 15.9582 10.6539 15.5623 11.5391C15.1665 12.4243 14.5229 13.1761 13.7092 13.7035C12.8955 14.231 11.9465 14.5117 10.9768 14.5117H8.00006C6.6678 14.5117 5.3901 13.9825 4.44805 13.0404C3.50601 12.0984 2.97677 10.8207 2.97677 9.48844C2.97677 8.15618 3.50601 6.87848 4.44805 5.93643C5.3901 4.99438 6.6678 4.46515 8.00006 4.46515H9.48844C9.63647 4.46515 9.77843 4.52395 9.88311 4.62862C9.98778 4.7333 10.0466 4.87526 10.0466 5.02329C10.0466 5.17132 9.98778 5.31328 9.88311 5.41796C9.77843 5.52263 9.63647 5.58143 9.48844 5.58143H8.00006Z" fill="white"/>
</svg>
