<svg width="16" height="16" viewBox="0 0 16 16" fill="none" xmlns="http://www.w3.org/2000/svg">
<g clip-path="url(#clip0_143_75)">
<path fill-rule="evenodd" clip-rule="evenodd" d="M7.52791 2.20534C7.26524 2.54801 6.96924 3.07734 6.53858 3.84934L6.32058 4.24068L6.28124 4.31134C6.08124 4.67134 5.91124 4.97668 5.63858 5.18334C5.36324 5.39268 5.02724 5.46801 4.63658 5.55601L4.56058 5.57334L4.13658 5.66934C3.29991 5.85868 2.72991 5.98868 2.34058 6.14268C1.95991 6.29201 1.87991 6.41534 1.84924 6.51334C1.81658 6.61734 1.81591 6.77668 2.04258 7.13801C2.27391 7.50468 2.66391 7.96201 3.23324 8.62868L3.52258 8.96668L3.57258 9.02468C3.84124 9.33801 4.06524 9.59934 4.16791 9.93001C4.26991 10.2587 4.23591 10.6033 4.19458 11.022L4.18791 11.1L4.14391 11.5513C4.05724 12.4393 3.99991 13.0513 4.01924 13.4913C4.03924 13.9313 4.13191 14.0527 4.20591 14.1087C4.27124 14.1587 4.39258 14.2133 4.78791 14.1C5.18991 13.9853 5.72458 13.7407 6.50791 13.38L6.90524 13.1973L6.97791 13.164C7.34124 12.9953 7.65591 12.85 7.99991 12.85C8.34391 12.85 8.65858 12.9953 9.02191 13.1633C9.04547 13.1749 9.06991 13.186 9.09524 13.1967L9.49191 13.38C10.2752 13.7407 10.8099 13.9853 11.2119 14.1C11.6072 14.2133 11.7286 14.1587 11.7939 14.1087C11.8679 14.0527 11.9606 13.9307 11.9806 13.4913C12.0006 13.0513 11.9419 12.4393 11.8559 11.5513L11.8119 11.1L11.8052 11.022C11.7639 10.6033 11.7299 10.2587 11.8319 9.93001C11.9346 9.59934 12.1586 9.33801 12.4272 9.02468L12.4772 8.96668L12.7666 8.62868C13.3359 7.96201 13.7259 7.50468 13.9566 7.13801C14.1839 6.77668 14.1832 6.61801 14.1506 6.51334C14.1199 6.41534 14.0399 6.29201 13.6592 6.14268C13.2692 5.98868 12.6999 5.85868 11.8632 5.66934L11.4392 5.57334L11.3632 5.55601C10.9726 5.46801 10.6366 5.39268 10.3612 5.18334C10.0879 4.97668 9.91925 4.67201 9.71858 4.31134L9.67991 4.24068L9.46124 3.84934C9.03058 3.07734 8.73458 2.54801 8.47191 2.20534C8.20924 1.86268 8.07591 1.83334 7.99991 1.83334C7.92391 1.83334 7.78991 1.86268 7.52791 2.20534ZM6.73458 1.59734C7.05124 1.18268 7.44391 0.833344 7.99991 0.833344C8.55591 0.833344 8.94791 1.18268 9.26591 1.59734C9.57791 2.00534 9.90924 2.59934 10.3139 3.32534L10.5532 3.75401C10.8146 4.22334 10.8819 4.32334 10.9659 4.38734C11.0459 4.44801 11.1506 4.48268 11.6592 4.59801L12.1259 4.70334C12.9099 4.88068 13.5559 5.02668 14.0259 5.21201C14.5139 5.40468 14.9412 5.68801 15.1059 6.21668C15.2686 6.74001 15.0859 7.22134 14.8032 7.67001C14.5286 8.10668 14.0899 8.62001 13.5539 9.24668L13.2372 9.61668C12.8926 10.0193 12.8206 10.118 12.7866 10.2267C12.7526 10.338 12.7552 10.4667 12.8079 11.0033L12.8552 11.4953C12.9366 12.3327 13.0026 13.0153 12.9792 13.5353C12.9559 14.0653 12.8359 14.5733 12.3992 14.9053C11.9539 15.2427 11.4359 15.2053 10.9359 15.0613C10.4512 14.9227 9.84724 14.6447 9.11391 14.3067L8.67658 14.1053C8.19791 13.8853 8.09591 13.85 7.99991 13.85C7.90391 13.85 7.80191 13.8853 7.32324 14.1053L6.88658 14.3067C6.15258 14.6447 5.54858 14.9227 5.06391 15.0613C4.56391 15.2047 4.04591 15.2427 3.60124 14.9053C3.16391 14.5733 3.04391 14.0653 3.02058 13.536C2.99724 13.016 3.06324 12.3327 3.14458 11.496L3.19258 11.0033C3.24458 10.466 3.24724 10.338 3.21258 10.2267C3.17924 10.118 3.10724 10.02 2.76258 9.61668L2.44591 9.24668C1.91058 8.62001 1.47191 8.10668 1.19724 7.67068C0.913911 7.22134 0.731244 6.74001 0.893911 6.21668C1.05858 5.68801 1.48591 5.40468 1.97391 5.21201C2.44391 5.02668 3.08991 4.88068 3.87391 4.70334L3.91591 4.69401L4.33991 4.59801C4.84924 4.48268 4.95324 4.44801 5.03391 4.38668C5.11791 4.32334 5.18524 4.22334 5.44724 3.75401L5.68591 3.32534C6.09058 2.59868 6.42258 2.00534 6.73458 1.59734Z" fill="#171717"/>
</g>
<defs>
<clipPath id="clip0_143_75">
<rect width="16" height="16" fill="white"/>
</clipPath>
</defs>
</svg>
