<svg width="16" height="15" viewBox="0 0 16 15" fill="none" xmlns="http://www.w3.org/2000/svg">
<path fill-rule="evenodd" clip-rule="evenodd" d="M7.66683 1C6.90079 1 6.14224 1.15088 5.43451 1.44404C4.72678 1.73719 4.08372 2.16687 3.54204 2.70854C3.00036 3.25022 2.57068 3.89328 2.27753 4.60101C1.98438 5.30875 1.8335 6.06729 1.8335 6.83333C1.8335 7.59938 1.98438 8.35792 2.27753 9.06565C2.57068 9.77339 3.00036 10.4164 3.54204 10.9581C4.08372 11.4998 4.72678 11.9295 5.43451 12.2226C6.14224 12.5158 6.90079 12.6667 7.66683 12.6667C9.21393 12.6667 10.6977 12.0521 11.7916 10.9581C12.8856 9.86416 13.5002 8.38043 13.5002 6.83333C13.5002 5.28624 12.8856 3.80251 11.7916 2.70854C10.6977 1.61458 9.21393 1 7.66683 1ZM0.833496 6.83333C0.833496 3.06 3.8935 0 7.66683 0C11.4402 0 14.5002 3.06 14.5002 6.83333C14.5002 8.54 13.8742 10.1013 12.8395 11.2987L15.0202 13.48C15.0693 13.5258 15.1087 13.581 15.136 13.6423C15.1633 13.7036 15.178 13.7699 15.1792 13.837C15.1804 13.9041 15.1681 13.9708 15.1429 14.0331C15.1178 14.0953 15.0803 14.1519 15.0329 14.1994C14.9854 14.2468 14.9288 14.2843 14.8666 14.3094C14.8043 14.3346 14.7376 14.3469 14.6705 14.3457C14.6033 14.3445 14.5371 14.3298 14.4758 14.3025C14.4145 14.2752 14.3593 14.2358 14.3135 14.1867L12.1322 12.006C10.8927 13.0799 9.30683 13.6697 7.66683 13.6667C3.8935 13.6667 0.833496 10.6067 0.833496 6.83333Z" fill="white"/>
</svg>
