<svg width="16" height="17" viewBox="0 0 16 17" fill="none" xmlns="http://www.w3.org/2000/svg">
<path fill-rule="evenodd" clip-rule="evenodd" d="M8 0.166656C8.18186 0.166656 8.35628 0.238901 8.48487 0.367497C8.61347 0.496094 8.68571 0.670508 8.68571 0.852371V15.4809C8.68571 15.6628 8.61347 15.8372 8.48487 15.9658C8.35628 16.0944 8.18186 16.1667 8 16.1667C7.81814 16.1667 7.64372 16.0944 7.51513 15.9658C7.38653 15.8372 7.31429 15.6628 7.31429 15.4809V0.852371C7.31429 0.670508 7.38653 0.496094 7.51513 0.367497C7.64372 0.238901 7.81814 0.166656 8 0.166656ZM4.34286 2.90951C4.52472 2.90951 4.69913 2.98176 4.82773 3.11035C4.95633 3.23895 5.02857 3.41337 5.02857 3.59523V12.7381C5.02857 12.9199 4.95633 13.0944 4.82773 13.223C4.69913 13.3516 4.52472 13.4238 4.34286 13.4238C4.16099 13.4238 3.98658 13.3516 3.85798 13.223C3.72939 13.0944 3.65714 12.9199 3.65714 12.7381V3.59523C3.65714 3.41337 3.72939 3.23895 3.85798 3.11035C3.98658 2.98176 4.16099 2.90951 4.34286 2.90951ZM11.6571 2.90951C11.839 2.90951 12.0134 2.98176 12.142 3.11035C12.2706 3.23895 12.3429 3.41337 12.3429 3.59523V12.7381C12.3429 12.9199 12.2706 13.0944 12.142 13.223C12.0134 13.3516 11.839 13.4238 11.6571 13.4238C11.4753 13.4238 11.3009 13.3516 11.1723 13.223C11.0437 13.0944 10.9714 12.9199 10.9714 12.7381V3.59523C10.9714 3.41337 11.0437 3.23895 11.1723 3.11035C11.3009 2.98176 11.4753 2.90951 11.6571 2.90951ZM0.685714 6.56666C0.867577 6.56666 1.04199 6.6389 1.17059 6.7675C1.29918 6.89609 1.37143 7.07051 1.37143 7.25237V9.08094C1.37143 9.2628 1.29918 9.43722 1.17059 9.56582C1.04199 9.69441 0.867577 9.76666 0.685714 9.76666C0.503852 9.76666 0.329437 9.69441 0.200841 9.56582C0.0722446 9.43722 0 9.2628 0 9.08094V7.25237C0 7.07051 0.0722446 6.89609 0.200841 6.7675C0.329437 6.6389 0.503852 6.56666 0.685714 6.56666ZM15.3143 6.56666C15.4961 6.56666 15.6706 6.6389 15.7992 6.7675C15.9278 6.89609 16 7.07051 16 7.25237V9.08094C16 9.2628 15.9278 9.43722 15.7992 9.56582C15.6706 9.69441 15.4961 9.76666 15.3143 9.76666C15.1324 9.76666 14.958 9.69441 14.8294 9.56582C14.7008 9.43722 14.6286 9.2628 14.6286 9.08094V7.25237C14.6286 7.07051 14.7008 6.89609 14.8294 6.7675C14.958 6.6389 15.1324 6.56666 15.3143 6.56666Z" fill="white"/>
</svg>
